# xmcd
#
# Track frame offsets: 
#        150
#        17182
#        34237
#        51150
#        68162
#        85725
#        104147
#        121545
#        138442
#        155947
#        174280
#        190777
#
# Disc length: 2803 seconds
#
# Revision: 0
# Processed by: cddbd v1.5.2PL0 Copyright (c) Steve Scherf et al.
# Submitted via: ExactAudioCopy v1.1
#
DISCID=a10af10c
DTITLE=Chaka Demus and Pliers - Bad Mind
DYEAR=1992
DGENRE=Reggae
TTITLE0=When I'm With You
TTITLE1=I'm Just A Man
TTITLE2=Fire Fire
TTITLE3=Dem A Watch We
TTITLE4=Bad Mind
TTITLE5=Smile
TTITLE6=Gal Wine
TTITLE7=Love You Like Crazy
TTITLE8=Put Down The Gun
TTITLE9=Claire
TTITLE10=Sissy
TTITLE11=Gal Wine
EXTD=
EXTT0=
EXTT1=
EXTT2=
EXTT3=
EXTT4=
EXTT5=
EXTT6=
EXTT7=
EXTT8=
EXTT9=
EXTT10=
EXTT11=
PLAYORDER=
